<svg width="48" height="48" viewBox="0 0 48 48" fill="none" xmlns="http://www.w3.org/2000/svg">
<path d="M0 24C0 10.7452 10.7452 0 24 0V0C37.2548 0 48 10.7452 48 24V24C48 37.2548 37.2548 48 24 48V48C10.7452 48 0 37.2548 0 24V24Z" fill="#EEF4FA"/>
<path fill-rule="evenodd" clip-rule="evenodd" d="M26.15 24.9504C26.15 26.0244 25.274 26.9004 24.2 26.9004C23.126 26.9004 22.25 26.0244 22.25 24.9504C22.25 23.8764 23.126 23.0004 24.2 23.0004C25.274 23.0004 26.15 23.8764 26.15 24.9504" fill="#A4AAAF"/>
<path fill-rule="evenodd" clip-rule="evenodd" d="M24.2 28.1004C22.46 28.1004 21.05 26.6904 21.05 24.9504C21.05 23.2104 22.46 21.8004 24.2 21.8004C25.94 21.8004 27.35 23.2104 27.35 24.9504C27.35 26.6904 25.94 28.1004 24.2 28.1004ZM29.9 20.3004H27.5L27.125 19.3674C26.99 19.0254 26.66 18.8004 26.291 18.8004H22.109C21.74 18.8004 21.41 19.0254 21.275 19.3674L20.9 20.3004H18.5C17.672 20.3004 17 20.9724 17 21.8004V28.1004C17 28.9284 17.672 29.6004 18.5 29.6004H29.9C30.728 29.6004 31.4 28.9284 31.4 28.1004V21.8004C31.4 20.9724 30.728 20.3004 29.9 20.3004Z" fill="#A4AAAF"/>
</svg>
