<svg width="23" height="20" viewBox="0 0 23 20" fill="none" xmlns="http://www.w3.org/2000/svg">
<path d="M12.7399 11.53V11.197H12.41H9.3199C8.6199 11.197 8.23991 10.366 8.69991 9.82897L16.27 1.22997C16.77 0.662973 17.7099 1.01601 17.7099 1.77001V8.96996V9.30297H18.04H21.13C21.84 9.30297 22.22 10.136 21.75 10.67L14.18 19.27C13.68 19.838 12.7399 19.484 12.7399 18.73V11.53Z" fill="#FFD44F" stroke="#FFD44F" stroke-width="0.666667"/>
<path d="M8.5 2.66699H1.5C1.27 2.66699 1.07996 2.476 1.07996 2.25C1.07996 2.024 1.27 1.83301 1.5 1.83301H8.5C8.73 1.83301 8.92004 2.024 8.92004 2.25C8.92004 2.476 8.73 2.66699 8.5 2.66699Z" fill="#FFD44F" stroke="#FFD44F" stroke-width="0.666667"/>
<path d="M7.5 18.667H1.5C1.27 18.667 1.07996 18.476 1.07996 18.25C1.07996 18.024 1.27 17.833 1.5 17.833H7.5C7.73 17.833 7.92004 18.024 7.92004 18.25C7.92004 18.476 7.73 18.667 7.5 18.667Z" fill="#FFD44F" stroke="#FFD44F" stroke-width="0.666667"/>
<path d="M4.5 11H1.5C1.09 11 0.75 10.66 0.75 10.25C0.75 9.84 1.09 9.5 1.5 9.5H4.5C4.91 9.5 5.25 9.84 5.25 10.25C5.25 10.66 4.91 11 4.5 11Z" fill="#FFD44F"/>
</svg>
