<svg width="32" height="32" viewBox="0 0 32 32" fill="none" xmlns="http://www.w3.org/2000/svg">
<mask id="path-1-inside-1_1_993" fill="white">
<path d="M0 16C0 7.16344 7.16344 0 16 0C24.8366 0 32 7.16344 32 16C32 24.8366 24.8366 32 16 32C7.16344 32 0 24.8366 0 16Z"/>
</mask>
<path d="M0 16C0 7.16344 7.16344 0 16 0C24.8366 0 32 7.16344 32 16C32 24.8366 24.8366 32 16 32C7.16344 32 0 24.8366 0 16Z" fill="#EEF4FA"/>
<path d="M23.6667 16H20.7037M22.1852 17.4815L22.1852 14.5185" stroke="#6E51D0" stroke-width="1.5" stroke-linecap="round"/>
<path d="M10.3333 21.2678C10.3333 19.4803 11.5906 17.9578 13.2993 17.676L13.4532 17.6507C14.8214 17.4251 16.2156 17.4251 17.5838 17.6507L17.7377 17.676C19.4464 17.9578 20.7037 19.4803 20.7037 21.2678C20.7037 22.0404 20.0974 22.6667 19.3495 22.6667H11.6875C10.9396 22.6667 10.3333 22.0404 10.3333 21.2678Z" fill="#6E51D0" fill-opacity="0.24"/>
<path d="M18.5432 12.25C18.5432 13.8608 17.189 15.1667 15.5185 15.1667C13.848 15.1667 12.4938 13.8608 12.4938 12.25C12.4938 10.6392 13.848 9.33334 15.5185 9.33334C17.189 9.33334 18.5432 10.6392 18.5432 12.25Z" fill="#6E51D0" fill-opacity="0.24"/>
<path d="M10.3333 21.2678C10.3333 19.4803 11.5906 17.9578 13.2993 17.676L13.4532 17.6507C14.8214 17.4251 16.2156 17.4251 17.5838 17.6507L17.7377 17.676C19.4464 17.9578 20.7037 19.4803 20.7037 21.2678C20.7037 22.0404 20.0974 22.6667 19.3495 22.6667H11.6875C10.9396 22.6667 10.3333 22.0404 10.3333 21.2678Z" stroke="#6E51D0" stroke-width="1.5"/>
<path d="M18.5432 12.25C18.5432 13.8608 17.189 15.1667 15.5185 15.1667C13.848 15.1667 12.4938 13.8608 12.4938 12.25C12.4938 10.6392 13.848 9.33334 15.5185 9.33334C17.189 9.33334 18.5432 10.6392 18.5432 12.25Z" stroke="#6E51D0" stroke-width="1.5"/>
<path d="M-0.5 16C-0.5 6.8873 6.8873 -0.5 16 -0.5C25.1127 -0.5 32.5 6.8873 32.5 16H31.5C31.5 7.43959 24.5604 0.5 16 0.5C7.43959 0.5 0.5 7.43959 0.5 16H-0.5ZM32.5 17.5C32.5 26.6127 25.1127 34 16 34C6.8873 34 -0.5 26.6127 -0.5 17.5L0.5 16C0.5 23.732 7.43959 30 16 30C24.5604 30 31.5 23.732 31.5 16L32.5 17.5ZM16 34C6.8873 34 -0.5 26.6127 -0.5 17.5V16C-0.5 6.8873 6.8873 -0.5 16 -0.5V0.5C7.43959 0.5 0.5 7.43959 0.5 16C0.5 23.732 7.43959 30 16 30V34ZM16 -0.5C25.1127 -0.5 32.5 6.8873 32.5 16V17.5C32.5 26.6127 25.1127 34 16 34V30C24.5604 30 31.5 23.732 31.5 16C31.5 7.43959 24.5604 0.5 16 0.5V-0.5Z" fill="#D3E6F8" mask="url(#path-1-inside-1_1_993)"/>
</svg>
