<svg width="12" height="18" viewBox="0 0 12 18" fill="none" xmlns="http://www.w3.org/2000/svg">
<path d="M1 5.59199V12.3337C1 13.6597 1.52678 14.9315 2.46447 15.8692C3.40215 16.8069 4.67392 17.3337 6 17.3337C7.32608 17.3337 8.59785 16.8069 9.53553 15.8692C10.4732 14.9315 11 13.6597 11 12.3337V4.00033C11 3.11627 10.6488 2.26842 10.0237 1.6433C9.39857 1.01818 8.55072 0.666992 7.66667 0.666992C6.78261 0.666992 5.93477 1.01818 5.30964 1.6433C4.68452 2.26842 4.33333 3.11627 4.33333 4.00033V11.652C4.33333 11.8709 4.37644 12.0876 4.4602 12.2898C4.54396 12.492 4.66672 12.6757 4.82149 12.8305C4.97625 12.9853 5.15999 13.108 5.36219 13.1918C5.5644 13.2755 5.78113 13.3187 6 13.3187V13.3187C6.44203 13.3187 6.86595 13.1431 7.17851 12.8305C7.49107 12.5179 7.66667 12.094 7.66667 11.652V5.66699" stroke="#72996B" stroke-width="1.2" stroke-linecap="round" stroke-linejoin="round"/>
</svg>
