<svg width="60" height="39" viewBox="0 0 60 39" fill="none" xmlns="http://www.w3.org/2000/svg">
<path d="M59.49 9.64597C59.49 9.67297 59.504 9.69998 59.504 9.71398C59.518 9.79598 59.531 9.87798 59.545 9.94598L59.395 10.615C59.381 10.643 59.354 10.67 59.327 10.711C59.299 10.752 59.272 10.779 59.245 10.82C59.218 10.861 59.19 10.902 59.163 10.929C59.136 10.97 59.109 11.011 59.068 11.052C58.986 11.161 58.904 11.271 58.822 11.38C56.777 17.402 52.415 22.318 47.057 25.609C41.4 29.092 34.025 31.55 27.317 30.922C24.25 30.635 21.2369 29.72 18.4699 28.354C15.8389 27.057 13.085 25.377 11.49 22.851C10.74 21.676 10.263 20.379 9.86795 19.055C9.70395 18.522 9.554 17.976 9.418 17.43C8.927 15.586 8.53197 13.701 7.99997 11.872C7.86397 11.407 7.727 10.943 7.564 10.479C7.223 9.46798 6.81399 8.47098 6.29599 7.54298C5.94099 6.90098 5.53197 6.17697 4.98697 5.67197C4.45497 5.16697 3.86898 4.75697 3.22898 4.41497C2.98298 4.27897 2.72398 4.15597 2.47898 4.04697C2.26098 3.95097 2.05596 3.85598 1.86496 3.78698C1.79696 3.75998 1.71498 3.73298 1.66098 3.70498C1.52398 3.65098 1.402 3.59597 1.306 3.55497C1.197 3.51397 1.12896 3.41898 1.10196 3.30898L1.06095 3.15897C1.06095 3.15897 1.04697 3.11798 1.04697 3.04998C1.03397 2.80398 0.992985 2.31198 1.08799 2.03898C1.21099 1.68398 1.64696 1.60198 2.27396 1.30198C2.90096 1.00198 3.09197 0.427983 3.63797 0.086983C4.18297 -0.255017 6.14597 0.523979 6.14597 0.523979L6.97696 0.686974H6.991C7.468 0.782974 7.83596 1.17898 7.89096 1.67098C7.90496 1.79398 7.932 1.94398 7.973 2.12098C8 2.25798 8.04098 2.44898 8.10898 2.68098C8.62698 4.59298 10.4129 9.31797 15.2119 12.131C20.6099 15.286 25.518 16.583 33.588 16.132C41.645 15.682 54.773 9.63198 55.919 9.22198C56.641 8.96298 56.914 8.79898 57.023 8.73098C57.091 8.67598 57.091 8.66198 57.091 8.66198L57.827 8.18497C57.827 8.18497 57.841 8.15697 57.909 8.14397C57.909 8.14397 57.9229 8.14397 57.9359 8.14397C57.9359 8.14397 57.936 8.14397 57.95 8.14397C57.963 8.14397 57.963 8.14397 57.977 8.14397H57.991C58.004 8.14397 58.004 8.14397 58.018 8.14397C58.032 8.14397 58.045 8.14397 58.073 8.15697C58.1 8.15697 58.141 8.17097 58.195 8.18497C58.209 8.18497 58.222 8.19798 58.236 8.19798C58.263 8.21198 58.291 8.21198 58.318 8.22498C58.332 8.22498 58.345 8.23898 58.372 8.25298C58.454 8.27998 58.536 8.33498 58.631 8.38898C58.659 8.40298 58.686 8.41698 58.727 8.44398C58.754 8.45798 58.795 8.48497 58.822 8.51197C58.877 8.53997 58.918 8.58098 58.959 8.62098C59.068 8.71698 59.163 8.82598 59.231 8.94898C59.245 8.96298 59.2589 8.97697 59.2589 9.00397C59.2719 9.01797 59.272 9.03098 59.286 9.04498C59.313 9.08598 59.34 9.12698 59.354 9.18098C59.395 9.29098 59.449 9.48197 59.49 9.64597Z" fill="#F7DC57"/>
<path d="M7.59201 10.465C7.25101 9.45499 6.842 8.458 6.324 7.529C5.97 6.887 5.56104 6.164 5.01504 5.658C4.48404 5.153 3.89705 4.74299 3.25705 4.40199C3.01105 4.26499 2.75205 4.143 2.50705 4.033C2.30205 3.938 2.11205 3.85599 1.93405 3.78799C1.67505 3.67799 1.62104 3.35099 1.81204 3.15899C2.35704 2.62699 2.73903 2.531 3.63803 3.473C5.02903 4.921 6.93701 6.27299 7.59201 10.465Z" fill="#D0D9E5"/>
<path d="M58.031 8.12999L58.113 8.71698L57.813 8.82599C56.368 9.35899 54.977 10.014 53.641 10.779C48.447 13.743 41.127 16.16 35.156 17.471C28.476 18.932 23.227 17.826 16.152 13.811C9.06298 9.79599 8.42202 5.13899 7.29102 1.87599C7.12702 1.41099 7.01801 1.02899 6.96301 0.687988H6.97699C7.45399 0.782988 7.82201 1.17899 7.87701 1.67099C7.89001 1.79399 7.91798 1.94399 7.95898 2.12099C8.23098 3.40499 9.81302 8.97698 15.197 12.131C20.596 15.286 25.504 16.583 33.574 16.132C41.631 15.682 54.759 9.63198 55.904 9.22198C56.627 8.96298 56.9 8.79899 57.009 8.73099C57.077 8.67599 57.077 8.66298 57.077 8.66298L57.813 8.18498C57.799 8.17098 57.854 8.10299 58.031 8.12999Z" fill="#FFF1BD"/>
<path d="M59.395 10.629C59.313 10.752 59.204 10.902 59.082 11.066C59 11.175 58.918 11.285 58.836 11.394C56.791 17.416 52.429 22.332 47.071 25.623C41.414 29.105 34.039 31.564 27.331 30.935C24.264 30.649 21.251 29.734 18.484 28.368C15.853 27.071 13.099 25.391 11.504 22.865C10.754 21.69 10.277 20.393 9.88202 19.068C9.82702 18.741 9.74502 18.427 9.65002 18.126C11.763 21.745 19.697 30.567 31.585 28.709C41.591 27.139 47.18 24.025 51.652 19.055C56.123 14.084 58.795 9.53699 58.795 9.53699L59.395 10.629Z" fill="#EDCC47"/>
<path d="M59.395 10.629C59.313 10.752 59.204 10.902 59.081 11.066C58.754 11.038 58.427 10.943 58.127 10.793C57.909 10.67 57.705 10.519 57.541 10.328C57.296 10.028 57.159 9.645 57.077 9.263C57.037 9.086 56.996 8.89399 56.996 8.71699C57.064 8.66199 57.064 8.649 57.064 8.649L57.8 8.171C57.8 8.171 57.95 7.95199 58.768 8.47099C59.3 8.81199 59.49 9.509 59.545 9.946C59.586 10.192 59.531 10.424 59.395 10.629Z" fill="#76603B"/>
<path d="M59.279 10.142C59.538 9.93501 59.431 9.37001 59.04 8.88201C58.649 8.39301 58.123 8.16601 57.864 8.37301C57.606 8.58101 57.713 9.14501 58.104 9.63301C58.495 10.122 59.021 10.35 59.279 10.142Z" fill="#332309"/>
<path d="M6.97806 0.686974C7.45505 0.782974 7.82302 1.17898 7.87802 1.67098C7.89102 1.79398 7.91801 1.94398 7.95901 2.12098C7.98701 2.25798 8.02704 2.44898 8.09604 2.68098C7.79604 2.70898 7.48203 2.70898 7.18203 2.72198C5.54603 2.74898 3.91001 3.21397 2.49301 4.04697C2.27501 3.95097 2.07006 3.85598 1.87906 3.78698C1.81106 3.75998 1.72902 3.73298 1.67502 3.70498C1.53802 3.65098 1.41604 3.59597 1.32004 3.55497C1.21104 3.51397 1.14306 3.41898 1.11606 3.30898L1.07504 3.15897C1.07504 3.15897 1.061 3.11798 1.061 3.04998C1.034 2.80398 0.99304 2.31198 1.08804 2.03898C1.21104 1.68398 1.64705 1.60198 2.27505 1.30198C2.90205 1.00198 3.09203 0.427983 3.63803 0.086983C4.18303 -0.255017 6.14602 0.523979 6.14602 0.523979L6.97806 0.686974Z" fill="#76603B"/>
<path d="M55.51 23.985C55.51 24.012 55.51 24.039 55.51 24.053C55.51 24.135 55.496 24.217 55.496 24.285C55.496 24.285 55.183 24.886 55.169 24.9C55.142 24.927 55.115 24.954 55.087 24.968C55.06 24.995 55.019 25.023 54.992 25.05C54.951 25.077 54.924 25.104 54.883 25.145C54.842 25.173 54.801 25.214 54.76 25.241C54.665 25.323 54.556 25.405 54.447 25.487C50.916 30.772 45.435 34.39 39.41 36.193C33.043 38.091 25.286 38.555 18.974 36.207C16.084 35.128 13.412 33.475 11.095 31.441C8.89997 29.502 6.66398 27.166 5.76398 24.312C5.35598 22.988 5.21898 21.609 5.17798 20.216C5.16498 19.656 5.16498 19.096 5.16498 18.536C5.16498 16.624 5.25997 14.712 5.23297 12.801C5.21897 12.323 5.20598 11.831 5.17798 11.339C5.10998 10.274 4.97403 9.20901 4.71503 8.17101C4.53803 7.44701 4.33299 6.655 3.93799 6.027C3.55599 5.413 3.09197 4.85301 2.56097 4.34801C2.35597 4.15601 2.15202 3.965 1.93402 3.788C1.74302 3.637 1.56602 3.50101 1.41602 3.37801C1.34802 3.32301 1.29298 3.282 1.23798 3.241C1.11598 3.146 1.01999 3.07801 0.924988 3.00901C0.842988 2.94101 0.789001 2.83201 0.789001 2.72201V2.57201C0.789001 2.57201 0.789002 2.53101 0.802002 2.46301C0.829002 2.24501 0.925013 1.73901 1.08801 1.50701C1.29301 1.19301 1.74301 1.22001 2.42401 1.09701C3.10601 0.975008 3.447 0.469008 4.06 0.278008C4.674 0.0870076 6.37799 1.34301 6.37799 1.34301L7.12799 1.72601H7.14099C7.57799 1.94401 7.82301 2.42201 7.76801 2.91401C7.75501 3.03701 7.74103 3.18701 7.72803 3.36401C7.71403 3.50101 7.71399 3.70601 7.71399 3.93801C7.72799 5.91801 8.21802 10.943 12.145 14.904C16.548 19.342 20.965 21.868 28.858 23.52C36.765 25.173 50.998 22.728 52.211 22.633C52.974 22.564 53.274 22.483 53.41 22.442C53.479 22.414 53.492 22.387 53.492 22.387L53.775 22.663C53.775 22.663 53.803 22.636 53.871 22.65C53.884 22.65 53.884 22.65 53.898 22.65C53.898 22.65 53.898 22.65 53.912 22.65C53.912 22.65 53.925 22.65 53.939 22.65C53.939 22.65 53.939 22.65 53.953 22.65C53.966 22.65 53.966 22.65 53.98 22.663C53.993 22.663 54.007 22.677 54.034 22.677C54.062 22.691 54.102 22.704 54.143 22.732C54.157 22.745 54.171 22.745 54.184 22.759C54.212 22.773 54.225 22.786 54.252 22.814C54.266 22.827 54.28 22.841 54.293 22.855C54.361 22.909 54.43 22.977 54.511 23.046C54.539 23.073 54.552 23.087 54.58 23.114C54.607 23.141 54.634 23.169 54.661 23.196C54.702 23.237 54.743 23.291 54.77 23.332C54.852 23.455 54.907 23.578 54.948 23.715C54.948 23.728 54.961 23.756 54.961 23.769C54.961 23.783 54.975 23.797 54.975 23.81C54.989 23.865 55.002 23.906 55.016 23.961C54.948 24.165 55.51 23.807 55.51 23.985Z" fill="#F7DC57"/>
<path d="M5.15097 11.339C5.08197 10.274 4.94599 9.20902 4.68699 8.17102C4.50999 7.44702 4.30495 6.655 3.90995 6.027C3.52795 5.412 3.06499 4.85201 2.53299 4.34701C2.32899 4.15601 2.12398 3.96501 1.90598 3.78701C1.72898 3.63701 1.56495 3.51401 1.41495 3.40501C1.19695 3.24101 1.22397 2.90001 1.45597 2.76301C2.10997 2.39401 2.50595 2.39401 3.14695 3.54101C4.11395 5.30301 5.61397 7.11902 5.15097 11.339Z" fill="#EDCC47"/>
<path d="M54.485 22.141L54.417 22.741L54.104 22.769C52.577 22.905 51.064 23.192 49.564 23.574C43.784 25.09 36.095 25.527 29.974 25.254C23.144 24.94 18.359 22.509 12.552 16.801C6.74399 11.066 7.32997 6.39499 7.07097 2.95399C7.02997 2.46299 7.02997 2.06601 7.07097 1.72501H7.08501C7.52101 1.94401 7.76596 2.42199 7.71196 2.91299C7.69796 3.03599 7.68501 3.186 7.67101 3.364C7.60301 4.675 7.685 10.465 12.088 14.917C16.491 19.355 20.908 21.881 28.802 23.534C36.709 25.186 50.941 22.741 52.154 22.646C52.918 22.578 53.218 22.496 53.354 22.455C53.422 22.427 53.436 22.4 53.436 22.4L54.267 22.127C54.254 22.113 54.322 22.059 54.485 22.141Z" fill="#FFF1BD"/>
<path d="M55.156 24.899C55.047 24.995 54.91 25.118 54.747 25.241C54.651 25.322 54.542 25.404 54.433 25.486C50.902 30.771 45.422 34.39 39.396 36.193C33.03 38.091 25.273 38.555 18.961 36.206C16.071 35.127 13.399 33.475 11.081 31.44C8.88599 29.501 6.65098 27.166 5.75098 24.312C5.34198 22.987 5.20598 21.608 5.16498 20.215C5.19198 19.887 5.20602 19.56 5.19202 19.246C6.29602 23.288 11.681 33.871 23.651 35.141C33.725 36.22 39.928 34.649 45.531 31.003C51.148 27.357 54.883 23.656 54.883 23.656L55.156 24.899Z" fill="#EDCC47"/>
<path d="M55.154 24.899C55.045 24.995 54.895 25.118 54.745 25.241C54.432 25.131 54.146 24.954 53.9 24.722C53.723 24.544 53.559 24.353 53.45 24.121C53.287 23.766 53.259 23.37 53.273 22.974C53.273 22.796 53.287 22.605 53.341 22.428C53.409 22.4 53.423 22.373 53.423 22.373L54.255 22.1C54.255 22.1 54.459 21.922 55.113 22.646C55.536 23.11 55.536 23.834 55.482 24.285C55.454 24.531 55.345 24.749 55.154 24.899Z" fill="#76603B"/>
<path d="M55.172 24.405C55.475 24.271 55.517 23.698 55.266 23.125C55.015 22.552 54.565 22.196 54.262 22.33C53.958 22.463 53.916 23.036 54.168 23.609C54.419 24.182 54.869 24.538 55.172 24.405Z" fill="#332309"/>
<path d="M7.086 1.72501C7.522 1.94401 7.76701 2.422 7.71301 2.913C7.69901 3.036 7.686 3.18601 7.672 3.36401C7.658 3.50001 7.65802 3.705 7.65802 3.937C7.35802 3.883 7.05797 3.80101 6.77197 3.73301C5.16397 3.35001 3.47303 3.364 1.89203 3.801C1.70103 3.651 1.52402 3.51401 1.37402 3.39101C1.30602 3.33701 1.25098 3.29601 1.19598 3.25501C1.07398 3.15901 0.977996 3.09101 0.882996 3.02201C0.800996 2.95401 0.747009 2.845 0.747009 2.736V2.58501C0.747009 2.58501 0.74701 2.54501 0.76001 2.47601C0.78701 2.25801 0.883021 1.75201 1.04602 1.52001C1.25102 1.20601 1.70102 1.234 2.38202 1.111C3.06402 0.988 3.40501 0.482008 4.01801 0.291008C4.63201 0.100008 6.336 1.35601 6.336 1.35601L7.086 1.72501Z" fill="#76603B"/>
<path d="M5.21899 37.859H58.287" stroke="#B1B9CC" stroke-width="2" stroke-miterlimit="10" stroke-linecap="round" stroke-linejoin="round"/>
<path d="M1.28101 37.859H3.20203" stroke="#B1B9CC" stroke-width="2" stroke-miterlimit="10" stroke-linecap="round" stroke-linejoin="round"/>
</svg>
