<svg width="20" height="18" viewBox="0 0 20 18" fill="none" xmlns="http://www.w3.org/2000/svg">
  <path d="M1 15.433C1 13.431 2.4549 11.725 4.432 11.41L4.6101 11.381C6.1934 11.129 7.8066 11.129 9.3899 11.381L9.568 11.41C11.5451 11.725 13 13.431 13 15.433C13 16.298 12.2984 17 11.433 17H2.567C1.7016 17 1 16.298 1 15.433Z" fill="#72996B" fill-opacity="0.24"/>
  <path d="M10.5 4.5C10.5 6.433 8.933 8 7 8C5.067 8 3.5 6.433 3.5 4.5C3.5 2.567 5.067 1 7 1C8.933 1 10.5 2.567 10.5 4.5Z" fill="#72996B" fill-opacity="0.24"/>
  <path d="M1 15.433C1 13.431 2.4549 11.725 4.432 11.41L4.6101 11.381C6.1934 11.129 7.8066 11.129 9.3899 11.381L9.568 11.41C11.5451 11.725 13 13.431 13 15.433C13 16.298 12.2984 17 11.433 17H2.567C1.7016 17 1 16.298 1 15.433Z" stroke="#72996B" stroke-width="1.5"/>
  <path d="M10.5 4.5C10.5 6.433 8.933 8 7 8C5.067 8 3.5 6.433 3.5 4.5C3.5 2.567 5.067 1 7 1C8.933 1 10.5 2.567 10.5 4.5Z" stroke="#72996B" stroke-width="1.5"/>
  <path d="M13 8C14.933 8 16.5 6.433 16.5 4.5C16.5 2.567 14.933 1 13 1M15.3899 17H17.433C18.2984 17 19 16.298 19 15.433C19 13.431 17.5451 11.725 15.568 11.41C15.4494 11.391 15.3293 11.381 15.2093 11.381C14.8895 11.381 14.7902 11.381 14.2412 11.381" stroke="#72996B" stroke-width="1.5" stroke-linecap="round"/>
</svg>
