<svg width="20" height="20" viewBox="0 0 20 20" fill="none" xmlns="http://www.w3.org/2000/svg">
<path d="M15.7071 5.70711C16.0976 5.31658 16.0976 4.68342 15.7071 4.29289C15.3166 3.90237 14.6834 3.90237 14.2929 4.29289L15.7071 5.70711ZM4.29289 14.2929C3.90237 14.6834 3.90237 15.3166 4.29289 15.7071C4.68342 16.0976 5.31658 16.0976 5.70711 15.7071L4.29289 14.2929ZM14.2929 15.7071C14.6834 16.0976 15.3166 16.0976 15.7071 15.7071C16.0976 15.3166 16.0976 14.6834 15.7071 14.2929L14.2929 15.7071ZM5.70711 4.29289C5.31658 3.90237 4.68342 3.90237 4.29289 4.29289C3.90237 4.68342 3.90237 5.31658 4.29289 5.70711L5.70711 4.29289ZM14.2929 4.29289L4.29289 14.2929L5.70711 15.7071L15.7071 5.70711L14.2929 4.29289ZM15.7071 14.2929L5.70711 4.29289L4.29289 5.70711L14.2929 15.7071L15.7071 14.2929Z" fill="#271A51"/>
</svg>
