<svg width="32" height="32" viewBox="0 0 32 32" fill="none" xmlns="http://www.w3.org/2000/svg">
<g clip-path="url(#clip0_4_2478)">
<rect width="32" height="32" fill="white"/>
<rect width="16" height="16" transform="translate(8 8)" fill="white"/>
<path d="M11.3334 20.741C11.3334 19.1323 12.4649 17.762 14.0027 17.5084L14.1413 17.4856C15.3727 17.2826 16.6274 17.2826 17.8588 17.4856L17.9973 17.5084C19.5352 17.762 20.6667 19.1323 20.6667 20.741C20.6667 21.4363 20.1211 22 19.448 22H12.5521C11.879 22 11.3334 21.4363 11.3334 20.741Z" fill="#D3E29F"/>
<path d="M18.7223 12.625C18.7223 14.0747 17.5035 15.25 16.0001 15.25C14.4966 15.25 13.2778 14.0747 13.2778 12.625C13.2778 11.1753 14.4966 10 16.0001 10C17.5035 10 18.7223 11.1753 18.7223 12.625Z" fill="#D3E29F"/>
<path d="M11.3334 20.741C11.3334 19.1323 12.4649 17.762 14.0027 17.5084L14.1413 17.4856C15.3727 17.2826 16.6274 17.2826 17.8588 17.4856L17.9973 17.5084C19.5352 17.762 20.6667 19.1323 20.6667 20.741C20.6667 21.4363 20.1211 22 19.448 22H12.5521C11.879 22 11.3334 21.4363 11.3334 20.741Z" stroke="#D3E29F"/>
<path d="M18.7223 12.625C18.7223 14.0747 17.5035 15.25 16.0001 15.25C14.4966 15.25 13.2778 14.0747 13.2778 12.625C13.2778 11.1753 14.4966 10 16.0001 10C17.5035 10 18.7223 11.1753 18.7223 12.625Z" stroke="#D3E29F"/>
</g>
<defs>
<clipPath id="clip0_4_2478">
<rect width="32" height="32" rx="16" fill="white"/>
</clipPath>
</defs>
</svg>
