<svg width="16" height="16" viewBox="0 0 16 16" fill="none" xmlns="http://www.w3.org/2000/svg">
<path d="M6.59375 2.65625V2.9375H9.40625V2.65625C9.40625 2.28329 9.25809 1.9256 8.99437 1.66188C8.73065 1.39816 8.37296 1.25 8 1.25C7.62704 1.25 7.26935 1.39816 7.00563 1.66188C6.74191 1.9256 6.59375 2.28329 6.59375 2.65625ZM5.46875 2.9375V2.65625C5.46875 1.98492 5.73543 1.34109 6.21014 0.866386C6.68484 0.391684 7.32867 0.125 8 0.125C8.67133 0.125 9.31516 0.391684 9.78986 0.866386C10.2646 1.34109 10.5312 1.98492 10.5312 2.65625V2.9375H14.75C14.8992 2.9375 15.0423 2.99676 15.1477 3.10225C15.2532 3.20774 15.3125 3.35082 15.3125 3.5C15.3125 3.64918 15.2532 3.79226 15.1477 3.89775C15.0423 4.00324 14.8992 4.0625 14.75 4.0625H13.9018L12.8375 13.382C12.759 14.0684 12.4307 14.7018 11.9151 15.1616C11.3995 15.6214 10.7327 15.8753 10.0419 15.875H5.95813C5.2673 15.8753 4.60051 15.6214 4.08492 15.1616C3.56932 14.7018 3.24098 14.0684 3.1625 13.382L2.09825 4.0625H1.25C1.10082 4.0625 0.957742 4.00324 0.852252 3.89775C0.746763 3.79226 0.6875 3.64918 0.6875 3.5C0.6875 3.35082 0.746763 3.20774 0.852252 3.10225C0.957742 2.99676 1.10082 2.9375 1.25 2.9375H5.46875ZM4.28075 13.2537C4.32771 13.6655 4.52451 14.0455 4.83364 14.3214C5.14278 14.5974 5.54263 14.7499 5.957 14.75H10.0424C10.4568 14.7499 10.8567 14.5974 11.1658 14.3214C11.4749 14.0455 11.6717 13.6655 11.7187 13.2537L12.77 4.0625H3.23056L4.28075 13.2537ZM6.3125 6.03125C6.46168 6.03125 6.60476 6.09051 6.71025 6.196C6.81574 6.30149 6.875 6.44457 6.875 6.59375V12.2188C6.875 12.3679 6.81574 12.511 6.71025 12.6165C6.60476 12.722 6.46168 12.7812 6.3125 12.7812C6.16332 12.7812 6.02024 12.722 5.91475 12.6165C5.80926 12.511 5.75 12.3679 5.75 12.2188V6.59375C5.75 6.44457 5.80926 6.30149 5.91475 6.196C6.02024 6.09051 6.16332 6.03125 6.3125 6.03125ZM10.25 6.59375C10.25 6.44457 10.1907 6.30149 10.0852 6.196C9.97976 6.09051 9.83668 6.03125 9.6875 6.03125C9.53832 6.03125 9.39524 6.09051 9.28975 6.196C9.18426 6.30149 9.125 6.44457 9.125 6.59375V12.2188C9.125 12.3679 9.18426 12.511 9.28975 12.6165C9.39524 12.722 9.53832 12.7812 9.6875 12.7812C9.83668 12.7812 9.97976 12.722 10.0852 12.6165C10.1907 12.511 10.25 12.3679 10.25 12.2188V6.59375Z" fill="white"/>
</svg>
