<svg width="32" height="32" viewBox="0 0 32 32" fill="none" xmlns="http://www.w3.org/2000/svg">
<path d="M16 19.3333C16.9205 19.3333 17.6667 20.0795 17.6667 21C17.6667 21.9205 16.9205 22.6667 16 22.6667C15.0795 22.6667 14.3333 21.9205 14.3333 21C14.3333 20.0795 15.0795 19.3333 16 19.3333Z" fill="#1A1D1F"/>
<path d="M16 14.3333C16.9205 14.3333 17.6667 15.0795 17.6667 16C17.6667 16.9205 16.9205 17.6667 16 17.6667C15.0795 17.6667 14.3333 16.9205 14.3333 16C14.3333 15.0795 15.0795 14.3333 16 14.3333Z" fill="#1A1D1F"/>
<path d="M16 9.33332C16.9205 9.33332 17.6667 10.0795 17.6667 11C17.6667 11.9205 16.9205 12.6667 16 12.6667C15.0795 12.6667 14.3333 11.9205 14.3333 11C14.3333 10.0795 15.0795 9.33332 16 9.33332Z" fill="#1A1D1F"/>
</svg>
