<svg width="17" height="17" viewBox="0 0 17 17" fill="none" xmlns="http://www.w3.org/2000/svg">
<path fill-rule="evenodd" clip-rule="evenodd" d="M16.2921 16.283H10.2479C9.90289 16.283 9.62289 16.003 9.62289 15.658C9.62289 15.313 9.90289 15.033 10.2479 15.033H16.2921C16.6371 15.033 16.9171 15.313 16.9171 15.658C16.9171 16.003 16.6371 16.283 16.2921 16.283Z" fill="#A4AAAF"/>
<mask id="mask0_39_964" style="mask-type:alpha" maskUnits="userSpaceOnUse" x="0" y="0" width="15" height="17">
<path fill-rule="evenodd" clip-rule="evenodd" d="M0.666664 0.5H14.9838V16.283H0.666664V0.5Z" fill="white"/>
</mask>
<g mask="url(#mask0_39_964)">
<path fill-rule="evenodd" clip-rule="evenodd" d="M9.92523 2.18054L2.07939 11.993C1.93689 12.1714 1.88439 12.4014 1.93689 12.6222L2.50439 15.0264L5.03689 14.9947C5.27773 14.9922 5.50023 14.8847 5.64773 14.7014C8.32856 11.3472 13.4394 4.9522 13.5844 4.7647C13.7211 4.54304 13.7744 4.2297 13.7027 3.92804C13.6294 3.61887 13.4369 3.35637 13.1594 3.18887C13.1002 3.14804 11.6961 2.05804 11.6527 2.02387C11.1244 1.60054 10.3536 1.67387 9.92523 2.18054ZM2.01106 16.283C1.72189 16.283 1.47023 16.0847 1.40273 15.8022L0.720226 12.9097C0.579393 12.3105 0.719393 11.6922 1.10356 11.2122L8.95356 1.39387C8.95689 1.39054 8.95939 1.38637 8.96273 1.38304C9.82356 0.353869 11.3802 0.202202 12.4302 1.0447C12.4719 1.0772 13.8661 2.16054 13.8661 2.16054C14.3727 2.4622 14.7686 3.00137 14.9186 3.6397C15.0677 4.27137 14.9594 4.92304 14.6119 5.47387C14.5861 5.5147 14.5636 5.5497 6.62356 15.483C6.24106 15.9597 5.66773 16.2372 5.05189 16.2447L2.01939 16.283H2.01106Z" fill="#A4AAAF"/>
</g>
<path fill-rule="evenodd" clip-rule="evenodd" d="M12.5192 7.73723C12.3859 7.73723 12.2526 7.69473 12.1384 7.60806L7.59506 4.11806C7.32172 3.90806 7.27006 3.51639 7.48006 3.24139C7.69089 2.96806 8.08256 2.91723 8.35672 3.12723L12.9009 6.61639C13.1742 6.82639 13.2259 7.21889 13.0151 7.49306C12.8926 7.65306 12.7067 7.73723 12.5192 7.73723Z" fill="#A4AAAF"/>
</svg>


