<svg version="1.1" xmlns="http://www.w3.org/2000/svg" xmlns:xlink="http://www.w3.org/1999/xlink" width="32px" height="32px">
  <defs>
    <clipPath id="cut-off-bottom">
      <rect x="0" y="16" width="32" height="16" />
    </clipPath>
  </defs>

  <circle cx="16" cy="16" r="16" clip-path="url(#cut-off-bottom)" opacity=".5" />
  <path transform="translate(10 17)" fill-rule="evenodd" clip-rule="evenodd" d="M7.625 6.625C7.625 7.52 6.895 8.25 6 8.25C5.105 8.25 4.375 7.52 4.375 6.625C4.375 5.73 5.105 5 6 5C6.895 5 7.625 5.73 7.625 6.625Z" fill="white"/>
  <path transform="translate(10 17)" fill-rule="evenodd" clip-rule="evenodd" d="M6 9.25C4.55 9.25 3.375 8.075 3.375 6.625C3.375 5.175 4.55 4 6 4C7.45 4 8.625 5.175 8.625 6.625C8.625 8.075 7.45 9.25 6 9.25ZM10.75 2.75H8.75L8.4375 1.9725C8.325 1.6875 8.05 1.5 7.7425 1.5H4.2575C3.95 1.5 3.675 1.6875 3.5625 1.9725L3.25 2.75H1.25C0.56 2.75 0 3.31 0 4V9.25C0 9.94 0.56 10.5 1.25 10.5H10.75C11.44 10.5 12 9.94 12 9.25V4C12 3.31 11.44 2.75 10.75 2.75Z" fill="white"/>
</svg>
