<svg width="20" height="20" viewBox="0 0 20 20" fill="none" xmlns="http://www.w3.org/2000/svg">
<g clip-path="url(#clip0_2_803)">
<path d="M6.66667 7.4C6.1512 7.4 5.73333 7.81787 5.73333 8.33333C5.73333 8.73834 5.40501 9.06667 5 9.06667C4.59499 9.06667 4.26667 8.73834 4.26667 8.33333C4.26667 7.00785 5.34118 5.93333 6.66667 5.93333C7.99215 5.93333 9.06667 7.00785 9.06667 8.33333C9.06667 8.73834 8.73834 9.06667 8.33333 9.06667C7.92833 9.06667 7.6 8.73834 7.6 8.33333C7.6 7.81787 7.18213 7.4 6.66667 7.4ZM13.3333 7.4C12.8179 7.4 12.4 7.81787 12.4 8.33333C12.4 8.73834 12.0717 9.06667 11.6667 9.06667C11.2617 9.06667 10.9333 8.73834 10.9333 8.33333C10.9333 7.00785 12.0078 5.93333 13.3333 5.93333C14.6588 5.93333 15.7333 7.00785 15.7333 8.33333C15.7333 8.73834 15.405 9.06667 15 9.06667C14.595 9.06667 14.2667 8.73834 14.2667 8.33333C14.2667 7.81787 13.8488 7.4 13.3333 7.4ZM6.43491 11.8043C6.81916 11.6763 7.23443 11.884 7.36243 12.2682C7.75854 13.4573 8.80933 14.2667 10 14.2667C11.1907 14.2667 12.2415 13.4573 12.6376 12.2682C12.7656 11.884 13.1809 11.6763 13.5651 11.8043C13.9494 11.9323 14.1571 12.3475 14.0291 12.7318C13.4547 14.4561 11.8868 15.7334 10 15.7334C8.11323 15.7334 6.54537 14.4561 5.97095 12.7318C5.84294 12.3475 6.05067 11.9323 6.43491 11.8043ZM0.1 10C0.1 4.53238 4.53238 0.1 10 0.1C15.4676 0.1 19.9 4.53238 19.9 10C19.9 15.4676 15.4676 19.9 10 19.9C4.53238 19.9 0.1 15.4676 0.1 10ZM10 1.56667C5.3424 1.56667 1.56667 5.3424 1.56667 10C1.56667 14.6576 5.3424 18.4333 10 18.4333C14.6576 18.4333 18.4333 14.6576 18.4333 10C18.4333 5.3424 14.6576 1.56667 10 1.56667Z" fill="#6E51D0" stroke="#EEF4FA" stroke-width="0.2" stroke-linecap="round"/>
</g>
<defs>
<clipPath id="clip0_2_803">
<rect width="20" height="20" fill="white"/>
</clipPath>
</defs>
</svg>
