<svg width="18" height="14" viewBox="0 0 18 14" fill="none" xmlns="http://www.w3.org/2000/svg">
<path fill-rule="evenodd" clip-rule="evenodd" d="M0.939114 1.6985C0.666634 2.2333 0.666634 2.9334 0.666634 4.3335V9.6668C0.666634 11.067 0.666634 11.767 0.939114 12.3018C1.17879 12.7722 1.56124 13.1547 2.03165 13.3943C2.56643 13.6668 3.26649 13.6668 4.66663 13.6668H13.3333C14.7334 13.6668 15.4335 13.6668 15.9683 13.3943C16.4387 13.1547 16.8211 12.7722 17.0608 12.3018C17.3333 11.767 17.3333 11.067 17.3333 9.6668V4.3335C17.3333 2.9334 17.3333 2.2333 17.0608 1.6985C16.8211 1.2281 16.4387 0.845697 15.9683 0.605997C15.4335 0.333497 14.7334 0.333498 13.3333 0.333498H4.66663C3.26649 0.333498 2.56643 0.333497 2.03165 0.605997C1.56124 0.845697 1.17879 1.2281 0.939114 1.6985ZM5.3047 3.813C4.92518 3.5526 4.40646 3.6492 4.14611 4.0288C3.88576 4.4083 3.98237 4.927 4.36189 5.1873L7.58574 7.3989C8.43793 7.9835 9.562 7.9835 10.4142 7.3989L13.638 5.1873C14.0176 4.927 14.1142 4.4083 13.8538 4.0288C13.5935 3.6492 13.0747 3.5526 12.6952 3.813L9.4714 6.0245C9.1873 6.2194 8.81262 6.2194 8.52855 6.0245L5.3047 3.813Z" fill="#72996B"/>
</svg>
