<svg width="21" height="19" viewBox="0 0 21 19" fill="none" xmlns="http://www.w3.org/2000/svg">
<path d="M2.4074 6.15134C6.03762 -0.0504456 14.9624 -0.0504451 18.5926 6.15134C19.8025 8.21824 19.8025 10.7818 18.5926 12.8487C14.9624 19.0504 6.03762 19.0504 2.4074 12.8487C1.19753 10.7818 1.19753 8.21824 2.4074 6.15134Z" fill="#D05151" fill-opacity="0.24"/>
<path d="M2.4074 6.15134L1.76013 5.77246L1.76013 5.77246L2.4074 6.15134ZM18.5926 6.15134L19.2399 5.77246V5.77246L18.5926 6.15134ZM18.5926 12.8487L17.9453 12.4698L18.5926 12.8487ZM2.4074 12.8487L3.05466 12.4698L2.4074 12.8487ZM3.05466 6.53021C6.39524 0.823262 14.6048 0.823262 17.9453 6.53021L19.2399 5.77246C15.32 -0.924152 5.68 -0.924153 1.76013 5.77246L3.05466 6.53021ZM17.9453 6.53021C19.0182 8.3631 19.0182 10.6369 17.9453 12.4698L19.2399 13.2275C20.5867 10.9266 20.5867 8.07338 19.2399 5.77246L17.9453 6.53021ZM17.9453 12.4698C14.6048 18.1767 6.39523 18.1767 3.05466 12.4698L1.76013 13.2275C5.68 19.9242 15.32 19.9242 19.2399 13.2275L17.9453 12.4698ZM3.05466 12.4698C1.98178 10.6369 1.98178 8.3631 3.05466 6.53021L1.76013 5.77246C0.413289 8.07338 0.413288 10.9266 1.76013 13.2275L3.05466 12.4698ZM13.3067 9.5607C13.3067 11.1528 12.0387 12.4233 10.4994 12.4233V13.9233C12.8887 13.9233 14.8067 11.9595 14.8067 9.5607H13.3067ZM10.4994 12.4233C8.96049 12.4233 7.69331 11.1531 7.69331 9.5607H6.19331C6.19331 11.9592 8.10988 13.9233 10.4994 13.9233V12.4233ZM7.69331 9.5607C7.69331 7.96701 8.96065 6.69699 10.4994 6.69699V5.19699C8.10973 5.19699 6.19331 7.16125 6.19331 9.5607H7.69331ZM10.4994 6.69699C12.0385 6.69699 13.3067 7.96732 13.3067 9.5607H14.8067C14.8067 7.16094 12.8888 5.19699 10.4994 5.19699V6.69699Z" fill="#D05151"/>
</svg>
