<svg width="25" height="24" viewBox="0 0 25 24" fill="none" xmlns="http://www.w3.org/2000/svg">
<path d="M4.4074 8.65134C8.03762 2.44955 16.9624 2.44955 20.5926 8.65134C21.8025 10.7182 21.8025 13.2818 20.5926 15.3487C16.9624 21.5504 8.03762 21.5504 4.4074 15.3487C3.19753 13.2818 3.19753 10.7182 4.4074 8.65134Z" fill="#72996B" fill-opacity="0.24"/>
<path d="M4.4074 8.65134L3.76013 8.27246L3.76013 8.27246L4.4074 8.65134ZM20.5926 8.65134L21.2399 8.27246V8.27246L20.5926 8.65134ZM20.5926 15.3487L19.9453 14.9698L20.5926 15.3487ZM4.4074 15.3487L5.05466 14.9698L4.4074 15.3487ZM5.05466 9.03021C8.39524 3.32326 16.6048 3.32326 19.9453 9.03021L21.2399 8.27246C17.32 1.57585 7.68 1.57585 3.76013 8.27246L5.05466 9.03021ZM19.9453 9.03021C21.0182 10.8631 21.0182 13.1369 19.9453 14.9698L21.2399 15.7275C22.5867 13.4266 22.5867 10.5734 21.2399 8.27246L19.9453 9.03021ZM19.9453 14.9698C16.6048 20.6767 8.39523 20.6767 5.05466 14.9698L3.76013 15.7275C7.68 22.4242 17.32 22.4242 21.2399 15.7275L19.9453 14.9698ZM5.05466 14.9698C3.98178 13.1369 3.98178 10.8631 5.05466 9.03021L3.76013 8.27246C2.41329 10.5734 2.41329 13.4266 3.76013 15.7275L5.05466 14.9698ZM15.3067 12.0607C15.3067 13.6528 14.0387 14.9233 12.4994 14.9233V16.4233C14.8887 16.4233 16.8067 14.4595 16.8067 12.0607H15.3067ZM12.4994 14.9233C10.9605 14.9233 9.69331 13.6531 9.69331 12.0607H8.19331C8.19331 14.4592 10.1099 16.4233 12.4994 16.4233V14.9233ZM9.69331 12.0607C9.69331 10.467 10.9606 9.19699 12.4994 9.19699V7.69699C10.1097 7.69699 8.19331 9.66125 8.19331 12.0607H9.69331ZM12.4994 9.19699C14.0385 9.19699 15.3067 10.4673 15.3067 12.0607H16.8067C16.8067 9.66094 14.8888 7.69699 12.4994 7.69699V9.19699Z" fill="#72996B"/>
</svg>
