<svg width="18" height="23" viewBox="0 0 18 23" fill="none" xmlns="http://www.w3.org/2000/svg">
<path fill-rule="evenodd" clip-rule="evenodd" d="M0 13.75C0 17.75 3 22.75 6 22.75C7.04 22.75 8.08 22.147 9 21.192C9.92 22.147 10.96 22.75 12 22.75C15 22.75 18 17.75 18 13.75C18 9.75 16 6.75 12 6.75C10.83 6.75 9.83 7.00698 9 7.47198C8.17 7.00698 7.17 6.75 6 6.75C2 6.75 0 9.75 0 13.75ZM5 13.25C5 12.974 5.22 12.75 5.5 12.75C6.33 12.75 7 13.422 7 14.25V15.25C7 15.526 6.78 15.75 6.5 15.75C5.67 15.75 5 15.078 5 14.25V13.25ZM12.5 12.75C12.78 12.75 13 12.974 13 13.25V14.25C13 15.078 12.33 15.75 11.5 15.75C11.22 15.75 11 15.526 11 15.25V14.25C11 13.422 11.67 12.75 12.5 12.75Z" fill="#D05151"/>
<path fill-rule="evenodd" clip-rule="evenodd" d="M6 4.75C7.1 4.75 8 5.645 8 6.75V7.75C8 8.302 8.45 8.75 9 8.75C9.55 8.75 10 8.302 10 7.75V6.75C10 4.541 8.21 2.75 6 2.75H5C4.45 2.75 4 3.198 4 3.75C4 4.302 4.45 4.75 5 4.75H6Z" fill="#4DBA0B"/>
<path d="M14.33 0.75H16.33C16.7 0.75 17 1.04799 17 1.41699C17 3.25799 15.51 4.75 13.67 4.75H11.67C11.3 4.75 11 4.45201 11 4.08301C11 2.24201 12.49 0.75 14.33 0.75Z" fill="#4DBA0B"/>
</svg>
