<svg width="97" height="100" viewBox="0 0 97 100" fill="none" xmlns="http://www.w3.org/2000/svg">
<g filter="url(#filter0_d_88_3269)">
<rect x="0.499512" width="96" height="96" rx="32" fill="#FFECEC"/>
<rect x="0.999512" y="0.5" width="95" height="95" rx="31.5" stroke="#F9D4D4"/>
</g>
<path d="M61.9137 37.4142C62.6948 36.6332 62.6948 35.3668 61.9137 34.5858C61.1327 33.8047 59.8663 33.8047 59.0853 34.5858L61.9137 37.4142ZM35.0853 58.5858C34.3042 59.3668 34.3042 60.6332 35.0853 61.4142C35.8663 62.1953 37.1327 62.1953 37.9137 61.4142L35.0853 58.5858ZM59.0853 61.4142C59.8663 62.1953 61.1327 62.1953 61.9137 61.4142C62.6948 60.6332 62.6948 59.3668 61.9137 58.5858L59.0853 61.4142ZM37.9137 34.5858C37.1327 33.8047 35.8663 33.8047 35.0853 34.5858C34.3042 35.3668 34.3042 36.6332 35.0853 37.4142L37.9137 34.5858ZM59.0853 34.5858L35.0853 58.5858L37.9137 61.4142L61.9137 37.4142L59.0853 34.5858ZM61.9137 58.5858L37.9137 34.5858L35.0853 37.4142L59.0853 61.4142L61.9137 58.5858Z" fill="#D05151"/>
<defs>
<filter id="filter0_d_88_3269" x="0.499512" y="0" width="96" height="100" filterUnits="userSpaceOnUse" color-interpolation-filters="sRGB">
<feFlood flood-opacity="0" result="BackgroundImageFix"/>
<feColorMatrix in="SourceAlpha" type="matrix" values="0 0 0 0 0 0 0 0 0 0 0 0 0 0 0 0 0 0 127 0" result="hardAlpha"/>
<feOffset dy="4"/>
<feComposite in2="hardAlpha" operator="out"/>
<feColorMatrix type="matrix" values="0 0 0 0 0.976471 0 0 0 0 0.831373 0 0 0 0 0.831373 0 0 0 1 0"/>
<feBlend mode="normal" in2="BackgroundImageFix" result="effect1_dropShadow_88_3269"/>
<feBlend mode="normal" in="SourceGraphic" in2="effect1_dropShadow_88_3269" result="shape"/>
</filter>
</defs>
</svg>
