<svg width="24" height="24" viewBox="0 0 24 24" fill="none" xmlns="http://www.w3.org/2000/svg">
<path d="M12.7069 3.29289C12.3163 2.90237 11.6832 2.90237 11.2927 3.29289C10.9021 3.68342 10.9021 4.31658 11.2927 4.70711L12.2926 5.70708L5.51343 12.4863C4.56774 13.432 4.15725 14.7877 4.41954 16.0992L4.99971 19L7.90054 19.5802C9.21198 19.8425 10.5677 19.432 11.5134 18.4863L12.2926 17.7071L10.2926 15.7071C9.90213 15.3166 9.90213 14.6834 10.2926 14.2929C10.6832 13.9024 11.3163 13.9024 11.7069 14.2929L13.7068 16.2929L15.2926 14.7071L13.2927 12.7071C12.9021 12.3166 12.9021 11.6834 13.2927 11.2929C13.6832 10.9024 14.3163 10.9024 14.7069 11.2929L16.7068 13.2929L18.2926 11.7071L19.2927 12.7071C19.6832 13.0976 20.3163 13.0976 20.7069 12.7071C21.0974 12.3166 21.0974 11.6834 20.7069 11.2929L12.7069 3.29289Z" fill="#FF66A9"/>
<path fill-rule="evenodd" clip-rule="evenodd" d="M7 17C7.39052 17.3905 7.39052 18.0237 7 18.4142L3.70711 21.7071C3.31658 22.0976 2.68342 22.0976 2.29289 21.7071C1.90237 21.3166 1.90237 20.6834 2.29289 20.2929L5.58579 17C5.97631 16.6095 6.60948 16.6095 7 17Z" fill="#FF66A9"/>
<path d="M17.7071 2.29289C17.3166 1.90237 16.6834 1.90237 16.2929 2.29289C15.9024 2.68342 15.9024 3.31658 16.2929 3.70711L17.5858 5.00005L16.0001 6.5858C15.6096 6.97633 15.6096 7.60949 16.0001 8.00002C16.3906 8.39054 17.0238 8.39054 17.4143 8.00002L19 6.41426L20.2929 7.70711C20.6834 8.09763 21.3166 8.09763 21.7071 7.70711C22.0976 7.31658 22.0976 6.68342 21.7071 6.29289L17.7071 2.29289Z" fill="#FF66A9"/>
</svg>
