<svg width="196" height="330" viewBox="0 0 196 330" fill="none" xmlns="http://www.w3.org/2000/svg">
<path d="M89.7948 329.999C133.785 329.999 169.446 325.806 169.446 320.632C169.446 315.459 133.785 311.266 89.7948 311.266C45.8045 311.266 10.1432 315.459 10.1432 320.632C10.1432 325.806 45.8045 329.999 89.7948 329.999Z" fill="#D7E2FF"/>
<path d="M37.9569 288.593C37.9569 288.593 33.5926 292.346 28.9027 296.734C18.948 293.662 12.7687 288.007 12.8796 280.679C12.8934 279.88 12.9835 279.074 13.1567 278.262C19.6893 271.795 28.5286 265.334 39.377 259.432C32.2694 265.947 22.0792 276.127 22.7442 280.535C23.7556 287.27 37.9569 288.593 37.9569 288.593Z" fill="#FFECDB"/>
<path d="M116.826 284.03C106.157 307.047 79.6945 318.701 58.2195 319.94C52.6984 320.257 43.7758 320.863 34.5416 320.54L40.1736 313.838C40.1736 313.838 17.2576 313.019 17.604 309.43C17.9504 305.835 37.9568 288.596 37.9568 288.596C37.9568 288.596 23.7556 287.274 22.7442 280.545C22.0791 276.137 32.2624 265.957 39.3769 259.442C58.1225 249.249 82.8604 240.729 112.08 236.775C112.073 236.775 131.837 251.673 116.826 284.03Z" fill="#FF942A"/>
<path d="M13.1498 278.27C12.9766 279.082 12.8865 279.888 12.8727 280.687C12.7619 288.015 18.948 293.67 28.8958 296.741C23.5617 301.728 17.7842 307.52 17.6041 309.428C17.2578 313.023 40.1737 313.836 40.1737 313.836L34.5417 320.537C17.6526 319.945 -0.192401 316.247 0.00156722 301.983C0.0916237 295.268 3.48605 287.63 13.1498 278.27Z" fill="#F2D0AD"/>
<path d="M116.826 284.03C106.157 307.047 79.6945 318.701 58.2195 319.94C52.6984 320.257 43.7758 320.863 34.5416 320.54L40.1736 313.838C40.1736 313.838 17.2576 313.019 17.604 309.43C17.7911 307.516 23.5616 301.723 28.8957 296.744C37.6866 299.464 50.1629 302.653 61.794 296.744C72.3168 291.399 74.7483 282.528 75.0601 274.677C75.4896 263.967 65.5279 247.892 65.5279 247.892C79.2927 242.995 94.9071 239.103 112.059 236.775C112.073 236.775 131.837 251.673 116.826 284.03Z" fill="#F07837"/>
<path d="M113.611 286.713C113.611 286.713 114.533 306.865 121.19 320.633H134.456C134.456 320.633 133.195 308.277 126.15 312.651C126.15 312.651 119.61 306.865 118.821 286.32L113.611 286.713Z" fill="#381706"/>
<path d="M142.249 232.27C142.249 232.27 161.41 285.351 121.398 288.595C116.569 288.987 113.604 286.707 113.604 286.707C113.604 286.707 123.289 274.565 111.076 255.301L142.249 232.27Z" fill="#F07837"/>
<path d="M148.006 224.122C144.861 249.474 128.145 259.289 128.145 259.289C128.561 231.023 104.252 236.498 94.8863 213.095C89.947 200.719 92.4963 181.703 96.0085 166.523C97.588 159.711 99.3475 153.685 100.712 149.359H126.247C128.318 152.837 130.216 156.219 131.948 159.498C137.317 169.663 141.162 178.906 143.773 187.302C148.401 202.124 149.218 214.3 148.006 224.122Z" fill="#FFECDB"/>
<path d="M82.6527 285.352C82.6527 285.352 81.2325 309.692 83.9134 320.636H97.1795C97.1795 320.636 97.5535 307.35 92.4965 311.957C92.4965 311.957 87.488 304.306 89.1714 286.33L82.6527 285.352Z" fill="#381706"/>
<path d="M128.145 259.289C119.929 285.984 97.505 290.378 93.397 290.378C89.289 290.378 82.6595 285.351 82.6595 285.351C82.6595 285.351 86.3518 281.68 85.4028 274.572C83.6986 261.81 70.2525 258.29 68.7631 236.044C66.7264 205.781 80.1587 174.547 88.0075 159.16C91.1525 152.989 93.4039 149.359 93.4039 149.359H100.719C99.3546 153.678 97.595 159.711 96.0156 166.523C92.5034 181.703 89.9472 200.719 94.8933 213.095C104.245 236.498 128.561 231.016 128.145 259.289Z" fill="#FF942A"/>
<path d="M131.948 159.498C122.735 166.171 119.361 178.886 113.348 178.886C109.497 178.886 102.327 172.439 96.0088 166.523C92.9885 163.685 90.169 160.985 88.0007 159.16C91.1458 152.989 93.3972 149.359 93.3972 149.359H126.254C128.318 152.837 130.216 156.219 131.948 159.498Z" fill="#F2DBC9"/>
<path d="M195.389 132.865C195.389 132.865 135.938 141.254 114.359 172.453C114.359 172.453 73.9239 136.901 21.4764 144.615C21.4764 144.615 60.1452 95.611 110.889 124.145C110.889 124.145 144.611 92.6977 195.389 132.865Z" fill="#FFECDB"/>
<path d="M182.9 66.2958C163.711 43.0923 140.927 34.7172 128.104 31.7143C146.122 0.7831 189.003 -3.61104 194.683 2.18813C198.5 6.06572 193.852 43.3264 182.9 66.2958Z" fill="#FF942A"/>
<path d="M183.467 11.0561C188.711 14.7822 179.533 65.0118 170.811 66.4031C162.082 67.7943 144.438 46.6776 144.909 40.2724C145.38 33.8671 158.861 34.666 158.861 34.666L147.611 28.7498L165.214 22.6269L155.896 18.7356C155.889 18.7356 177.24 6.62754 183.467 11.0561Z" fill="#F07837"/>
<path d="M182.9 66.3003C179.699 73.0292 175.938 78.5322 171.712 81.6109C163.378 87.6511 146.163 82.0379 131.948 69.7302C125.624 64.2409 119.451 50.0185 123.781 41.058C124.973 37.7108 126.427 34.6046 128.111 31.7188C140.926 34.7216 163.718 43.1036 182.9 66.3003Z" fill="#F07837"/>
<path d="M81.7593 33.4206C55.345 43.0285 38.8369 58.3736 28.5843 74.3867C18.8167 51.0041 20.3684 5.43719 25.2523 1.91085C31.2306 -2.41442 66.0201 6.65625 81.7593 33.4206Z" fill="#FF942A"/>
<path d="M34.8259 12.5405C29.0276 15.3437 29.6095 66.386 37.9779 69.2098C46.3462 72.0405 67.3017 54.1609 67.9182 47.7694C68.5278 41.3779 55.1094 39.9178 55.1094 39.9178L67.1978 35.9576L50.8768 26.9902L60.7206 24.7036C60.7206 24.7036 41.7118 9.21389 34.8259 12.5405Z" fill="#F07837"/>
<path d="M75.7184 78.9582C59.6399 88.7314 41.7117 91.3968 34.5279 84.0411C32.2003 81.6581 30.2191 78.3522 28.5911 74.3919C38.8437 58.3788 55.3448 43.0337 81.766 33.4258C84.9665 38.8944 87.3842 45.0792 88.6103 52.063C91.3744 61.602 82.8814 74.5985 75.7184 78.9582Z" fill="#F07837"/>
<path d="M195.39 132.853C148.242 100.297 110.889 124.134 110.889 124.134C60.7345 103.534 21.4768 144.603 21.4768 144.603C21.4768 144.603 15.9625 62.7468 91.2221 36.4164C91.2221 36.4164 96.9995 27.9449 109.379 20.6581L101.835 34.6808C102.264 34.3226 109.254 28.6681 117.706 26.1129L115.475 35.4659C115.475 35.4659 179.311 38.0969 195.39 132.853Z" fill="#FF942A"/>
<path d="M102.063 114.697C102.063 114.697 105.292 64.5842 87.3011 60.3691C61.628 54.3495 46.8865 100.371 46.8865 100.371C46.8865 100.371 62.5771 115.861 102.063 114.697Z" fill="#F07837"/>
<path d="M118.066 114.017C118.066 114.017 109.372 64.5522 126.794 58.4155C151.657 49.6479 171.345 93.8098 171.345 93.8098C171.345 93.8098 157.441 110.904 118.066 114.017Z" fill="#F07837"/>
<path d="M104.959 118.773L115.863 118.208C117.782 118.112 118.869 120.371 117.581 121.79L112.427 127.485C111.63 128.367 110.265 128.443 109.379 127.651L103.622 122.513C102.188 121.239 103.033 118.876 104.959 118.773Z" fill="#381706"/>
<path d="M96.7568 113.554C98.7173 96.2323 93.2931 69.2889 79.7015 69.5369C62.9648 69.8399 51.4098 98.2779 52.8785 102.789C54.5064 107.755 77.3946 114.546 96.7568 113.554Z" fill="white"/>
<path d="M93.0785 93.6643C92.5312 103.506 85.7008 111.131 77.8243 110.697C69.9409 110.263 63.9972 101.936 64.5444 92.1009C65.0917 82.2588 71.9222 74.6345 79.7986 75.0684C87.6821 75.4954 93.6258 83.8223 93.0785 93.6643Z" fill="#381706"/>
<path d="M92.8636 114.319C74.3605 114.319 53.9107 108.113 52.2412 102.989C51.2644 99.986 55.0399 89.3863 60.852 81.2868C64.8629 75.7011 71.3817 69.0066 79.7015 68.8551C82.9713 68.8 85.9639 70.205 88.5617 73.0495C96.0641 81.2455 98.9667 100.117 97.4426 113.63L97.3803 114.202L96.8053 114.229C95.503 114.291 94.1868 114.319 92.8636 114.319ZM79.8885 70.205C79.8331 70.205 79.7777 70.205 79.7223 70.205C71.9705 70.3428 65.7843 76.7342 61.9604 82.0719C55.8573 90.5847 52.8508 100.461 53.5366 102.576C54.9637 106.942 76.8543 113.726 96.1542 112.907C97.505 99.745 94.6994 81.762 87.5572 73.9586C85.2711 71.4654 82.6941 70.205 79.8885 70.205Z" fill="#381706"/>
<path d="M83.075 47.2731C83.075 48.9812 79.2165 50.3725 74.4643 50.3725C69.7051 50.3725 65.8535 48.9881 65.8535 47.2731C65.8535 45.5582 69.712 44.1738 74.4643 44.1738C79.2165 44.1738 83.075 45.5651 83.075 47.2731Z" fill="#381706"/>
<path d="M86.9336 80.165C87.1415 83.9393 84.987 87.1281 82.1329 87.2796C79.2788 87.4312 76.7988 84.4972 76.591 80.716C76.3832 76.9348 78.5376 73.7528 81.3917 73.6013C84.2458 73.4498 86.7258 76.3838 86.9336 80.165Z" fill="white"/>
<path d="M122.548 112.187C120.615 97.4207 120.297 67.9152 133.805 66.4137C150.445 64.5679 165.533 91.2152 164.66 95.8848C163.697 101.016 141.883 110.686 122.548 112.187Z" fill="white"/>
<path d="M125.942 91.8932C127.757 101.584 135.523 108.271 143.281 106.832C151.04 105.393 155.855 96.3769 154.04 86.6864C152.225 76.9958 144.459 70.3082 136.7 71.7477C128.942 73.1871 124.12 82.2027 125.942 91.8932Z" fill="#381706"/>
<path d="M121.959 112.913L121.876 112.279C120.366 100.743 119.714 78.8203 126.829 69.7979C128.713 67.4149 131.034 66.0511 133.736 65.7481C142 64.8252 149.329 70.6175 154.019 75.6384C160.808 82.9045 165.913 92.9119 165.332 96.0112C164.265 101.68 141.986 111.356 122.603 112.865L121.959 112.913ZM135.481 67.0016C134.955 67.0016 134.421 67.0292 133.881 67.0911C131.56 67.3529 129.544 68.5375 127.896 70.6312C121.183 79.1371 121.716 99.9852 123.143 111.466C142.367 109.8 163.149 100.274 163.995 95.7701C164.403 93.5868 160.157 84.1925 153.021 76.5613C148.851 72.0983 142.547 67.0016 135.481 67.0016Z" fill="#381706"/>
<path d="M125.582 44.8065C125.804 46.5008 129.808 47.3824 134.525 46.7763C139.243 46.1633 142.887 44.2968 142.665 42.6025C142.443 40.9082 138.439 40.0267 133.722 40.6327C129.004 41.2457 125.36 43.1122 125.582 44.8065Z" fill="#381706"/>
<path d="M135.634 77.6654C135.918 81.4397 138.467 84.3254 141.314 84.1051C144.168 83.8915 146.247 80.6614 145.956 76.8871C145.672 73.1128 143.122 70.227 140.275 70.4474C137.421 70.6609 135.343 73.8911 135.634 77.6654Z" fill="white"/>
<path d="M109.76 140.199C99.639 140.199 91.7763 136.976 91.6516 136.921L92.2128 135.605C92.4067 135.688 111.963 143.691 128.755 133.959L129.482 135.192C122.887 139.007 115.911 140.199 109.76 140.199Z" fill="#381706"/>
<path d="M139.076 202.211C140.102 201.254 140.787 200.104 140.78 198.781C140.739 194.615 134.594 189.105 126.669 193.127C117.629 197.714 105.07 217.253 96.4657 213.369C96.2232 213.259 96.0016 213.128 95.8145 212.949C90.328 208.493 90.2171 185.172 90.2171 185.172V169.469C79.9091 182.107 66.1374 218.955 96.2371 226C117.546 230.987 126.877 206.413 132.225 205.304C131.38 209.374 130.41 213.651 129.683 215.862C128.616 219.092 129.392 221.413 132.01 221.778C140.829 223.032 143.524 221.916 147.729 224.037C147.833 224.065 147.916 224.099 148.006 224.127C150.985 202.191 144.521 205.145 139.076 202.211Z" fill="#F2DBC9"/>
<path d="M90.529 219.572C88.146 213.209 92.3163 209.145 94.8863 207.361C89.3998 202.905 92.7596 176.065 92.7596 176.065L92.9328 164.756C78.593 179.426 73.7092 210.543 90.529 219.572Z" fill="#FF942A"/>
<path d="M138.46 187.119C138.418 182.952 132.987 179.984 125.062 184.006C116.022 188.593 104.148 211.666 95.5445 207.781C95.302 207.671 95.0804 207.54 94.8933 207.361C92.3163 209.145 88.153 213.209 90.536 219.573C91.8591 220.275 93.3762 220.805 95.0873 221.184C112.697 225.062 125.353 194.385 130.68 193.648C133.722 193.228 138.495 190.832 138.46 187.119Z" fill="#381706"/>
<path d="M145.124 215.693L132.793 211.878C130.279 211.1 129.24 208.448 130.466 205.962L145.124 176.263C146.35 173.77 149.391 172.386 151.906 173.164L164.237 176.98C166.752 177.758 167.791 180.409 166.565 182.903L151.906 212.601C150.673 215.087 147.639 216.472 145.124 215.693Z" fill="#F04A4A"/>
<path d="M155.405 188.323C154.497 190.169 152.253 191.195 150.389 190.616C148.533 190.045 147.757 188.082 148.671 186.236C149.579 184.39 151.823 183.364 153.687 183.943C155.543 184.521 156.312 186.484 155.405 188.323Z" fill="#F04A4A"/>
<path d="M151.941 197.519C146.676 199.902 150.257 213.222 154.047 214.269C157.836 215.316 160.995 213.642 160.572 207.781C160.15 201.92 154.255 196.472 151.941 197.519Z" fill="#381706"/>
</svg>
