<svg width="20" height="21" viewBox="0 0 20 21" fill="none" xmlns="http://www.w3.org/2000/svg">
<path d="M4 13.25C4 13.4 3.83996 13.502 3.70996 13.431C1.49996 12.254 0 9.927 0 7.25C0 3.384 3.13 0.25 7 0.25C9.68 0.25 12.0001 1.75301 13.1801 3.96201C13.2501 4.09401 13.15 4.25 13 4.25C8.03 4.25 4 8.279 4 13.25Z" fill="#FF66A9"/>
<path d="M13 20.25C16.87 20.25 20 17.116 20 13.25C20 11.678 19.48 10.226 18.61 9.05801L8.81006 18.856C9.98006 19.732 11.43 20.25 13 20.25Z" fill="#FF66A9"/>
<path d="M7.39001 17.442L17.1899 7.64401C16.0199 6.76801 14.57 6.25 13 6.25C9.13 6.25 6 9.384 6 13.25C6 14.822 6.52001 16.274 7.39001 17.442Z" fill="#FF66A9"/>
</svg>
