<svg width="18" height="20" viewBox="0 0 18 20" fill="none" xmlns="http://www.w3.org/2000/svg">
<path d="M7.15862 2.3022C5.15026 2.95321 3.58237 4.58671 3.02804 6.63256L2.98321 6.79801C2.62392 8.12404 2.55791 9.51302 2.7898 10.8674L2.81231 10.9989C2.83236 11.116 2.77215 11.2325 2.66821 11.2892C1.97254 11.6687 1.50024 12.4091 1.50024 13.2603C1.50024 14.3266 2.24779 15.2453 3.28783 15.4571L3.65543 15.532C7.18275 16.2506 10.8177 16.2506 14.3451 15.532L14.7127 15.4571C15.7527 15.2453 16.5002 14.3266 16.5002 13.2603C16.5002 12.4177 16.0374 11.6836 15.3532 11.3007C15.2373 11.2359 15.17 11.1051 15.1925 10.9737L15.2164 10.8342C15.4446 9.5011 15.3851 8.13425 15.042 6.82621L14.9795 6.58832C14.4502 4.57081 12.9401 2.95987 10.9673 2.30834C9.73518 1.90142 8.39296 1.90208 7.15862 2.3022Z" fill="#72996B" fill-opacity="0.24"/>
<path d="M6.00935 15.9034C7.99705 16.1268 10.0034 16.1268 11.9911 15.9034C11.9771 16.0967 11.9467 16.2887 11.9004 16.4772L11.8184 16.8105C11.5616 17.8549 10.7457 18.6678 9.70413 18.9169C9.24134 19.0276 8.75915 19.0276 8.29636 18.9169C7.25475 18.6678 6.43888 17.8549 6.18207 16.8105L6.1001 16.4772C6.05375 16.2887 6.02341 16.0967 6.00935 15.9034Z" fill="#72996B" fill-opacity="0.24"/>
<path d="M3.02804 6.63256L3.75194 6.8287L3.75194 6.8287L3.02804 6.63256ZM7.15862 2.3022L6.92736 1.58874L7.15862 2.3022ZM2.98321 6.79801L2.25931 6.60187L2.25931 6.60187L2.98321 6.79801ZM2.7898 10.8674L3.52905 10.7408V10.7408L2.7898 10.8674ZM2.81231 10.9989L2.07307 11.1254L2.07307 11.1254L2.81231 10.9989ZM3.28783 15.4571L3.43755 14.7222L3.28783 15.4571ZM3.65543 15.532L3.80515 14.7971H3.80515L3.65543 15.532ZM14.3451 15.532L14.1953 14.7971H14.1953L14.3451 15.532ZM14.7127 15.4571L14.8624 16.192L14.7127 15.4571ZM15.1925 10.9737L15.9317 11.1002V11.1002L15.1925 10.9737ZM15.2164 10.8342L14.4771 10.7077V10.7077L15.2164 10.8342ZM15.042 6.82621L14.3165 7.01654V7.01654L15.042 6.82621ZM14.9795 6.58832L15.705 6.39799V6.39799L14.9795 6.58832ZM10.9673 2.30834L11.2025 1.59618V1.59618L10.9673 2.30834ZM15.3532 11.3007L14.987 11.9552L15.3532 11.3007ZM2.66821 11.2892L2.30905 10.6307L2.66821 11.2892ZM9.75024 0.999969C9.75024 0.585756 9.41446 0.249969 9.00024 0.249969C8.58603 0.249969 8.25024 0.585756 8.25024 0.999969H9.75024ZM8.25024 2.00471C8.25024 2.41892 8.58603 2.75471 9.00024 2.75471C9.41446 2.75471 9.75024 2.41892 9.75024 2.00471H8.25024ZM6.00935 15.9034L6.09314 15.1581L5.1958 15.0572L5.26132 15.9578L6.00935 15.9034ZM11.9911 15.9034L12.7392 15.9578L12.8047 15.0572L11.9074 15.1581L11.9911 15.9034ZM11.9004 16.4772L12.6287 16.6563L11.9004 16.4772ZM11.8184 16.8105L11.0901 16.6315L11.8184 16.8105ZM9.70413 18.9169L9.87861 19.6464H9.87862L9.70413 18.9169ZM8.29636 18.9169L8.12187 19.6464H8.12187L8.29636 18.9169ZM6.18207 16.8105L5.45376 16.9896L6.18207 16.8105ZM6.1001 16.4772L6.8284 16.2981H6.8284L6.1001 16.4772ZM3.75194 6.8287C4.23949 5.02928 5.62076 3.58912 7.38989 3.01565L6.92736 1.58874C4.67975 2.31731 2.92524 4.14413 2.30414 6.43642L3.75194 6.8287ZM3.70711 6.99415L3.75194 6.8287L2.30414 6.43642L2.25931 6.60187L3.70711 6.99415ZM3.52905 10.7408C3.31554 9.49383 3.37633 8.21498 3.70711 6.99415L2.25931 6.60187C1.87152 8.03309 1.80028 9.5322 2.05056 10.994L3.52905 10.7408ZM3.55155 10.8723L3.52905 10.7408L2.05056 10.994L2.07307 11.1254L3.55155 10.8723ZM2.25024 13.2603C2.25024 12.6931 2.56409 12.2003 3.02738 11.9476L2.30905 10.6307C1.38099 11.137 0.750244 12.125 0.750244 13.2603H2.25024ZM3.43755 14.7222C2.74918 14.582 2.25024 13.9725 2.25024 13.2603H0.750244C0.750244 14.6807 1.7464 15.9085 3.13812 16.192L3.43755 14.7222ZM3.80515 14.7971L3.43755 14.7222L3.13812 16.192L3.50571 16.2669L3.80515 14.7971ZM14.1953 14.7971C10.7668 15.4956 7.23367 15.4956 3.80515 14.7971L3.50571 16.2669C7.13183 17.0056 10.8687 17.0056 14.4948 16.2669L14.1953 14.7971ZM14.5629 14.7222L14.1953 14.7971L14.4948 16.2669L14.8624 16.192L14.5629 14.7222ZM15.7502 13.2603C15.7502 13.9725 15.2513 14.582 14.5629 14.7222L14.8624 16.192C16.2541 15.9085 17.2502 14.6807 17.2502 13.2603H15.7502ZM14.987 11.9552C15.4427 12.2102 15.7502 12.6988 15.7502 13.2603H17.2502C17.2502 12.1365 16.6321 11.1569 15.7195 10.6462L14.987 11.9552ZM14.4771 10.7077L14.4532 10.8471L15.9317 11.1002L15.9556 10.9608L14.4771 10.7077ZM14.3165 7.01654C14.6326 8.22112 14.6873 9.47992 14.4771 10.7077L15.9556 10.9608C16.2019 9.52228 16.1377 8.04738 15.7674 6.63588L14.3165 7.01654ZM14.2541 6.77865L14.3165 7.01654L15.7674 6.63588L15.705 6.39799L14.2541 6.77865ZM10.7321 3.02051C12.4624 3.59197 13.7889 5.00571 14.2541 6.77865L15.705 6.39799C15.1115 4.13591 13.4177 2.32776 11.2025 1.59618L10.7321 3.02051ZM7.38989 3.01565C8.47426 2.66415 9.65307 2.66414 10.7321 3.02051L11.2025 1.59618C9.8173 1.13869 8.31167 1.14001 6.92736 1.58874L7.38989 3.01565ZM15.7195 10.6462C15.8628 10.7265 15.9662 10.8988 15.9317 11.1002L14.4532 10.8471C14.3738 11.3113 14.6118 11.7453 14.987 11.9552L15.7195 10.6462ZM2.07307 11.1254C2.03603 10.9091 2.14736 10.7189 2.30905 10.6307L3.02738 11.9476C3.39694 11.746 3.62869 11.3228 3.55155 10.8723L2.07307 11.1254ZM8.25024 0.999969V2.00471H9.75024V0.999969H8.25024ZM5.92556 16.6487C7.96895 16.8784 10.0315 16.8784 12.0749 16.6487L11.9074 15.1581C9.97533 15.3753 8.02516 15.3753 6.09314 15.1581L5.92556 16.6487ZM12.6287 16.6563C12.6851 16.4268 12.722 16.1931 12.7392 15.9578L11.2431 15.8489C11.2321 16.0003 11.2084 16.1506 11.1721 16.2981L12.6287 16.6563ZM12.5467 16.9896L12.6287 16.6563L11.1721 16.2981L11.0901 16.6315L12.5467 16.9896ZM9.87862 19.6464C11.1948 19.3315 12.2232 18.3052 12.5467 16.9896L11.0901 16.6315C10.9 17.4047 10.2967 18.004 9.52964 18.1875L9.87862 19.6464ZM8.12187 19.6464C8.69937 19.7845 9.30112 19.7845 9.87861 19.6464L9.52964 18.1875C9.18156 18.2708 8.81893 18.2708 8.47085 18.1875L8.12187 19.6464ZM5.45376 16.9896C5.77725 18.3052 6.80574 19.3315 8.12187 19.6464L8.47085 18.1875C7.70376 18.004 7.1005 17.4047 6.91037 16.6314L5.45376 16.9896ZM5.37179 16.6563L5.45376 16.9896L6.91037 16.6314L6.8284 16.2981L5.37179 16.6563ZM5.26132 15.9578C5.27844 16.1931 5.31537 16.4268 5.37179 16.6563L6.8284 16.2981C6.79213 16.1506 6.76838 16.0003 6.75737 15.8489L5.26132 15.9578Z" fill="#72996B"/>
</svg>
