<svg width="16" height="16" viewBox="0 0 16 16" fill="none" xmlns="http://www.w3.org/2000/svg">
<path d="M15.0683 14.2647L14.6663 14.6667C13.4246 15.9083 8.833 16.3334 4.24972 11.7501C-0.333621 7.16674 0.0829694 2.58333 1.33297 1.33333L1.74218 0.924119C2.39291 0.273389 3.4759 0.381049 3.98639 1.14675L5.66985 3.67188C6.05547 4.2503 5.9792 5.0205 5.48763 5.51205L4.61385 6.3858C4.39064 6.609 4.31587 6.93841 4.46157 7.21844C4.72716 7.72891 5.28117 8.6149 6.33305 9.6667C7.38491 10.7186 8.2708 11.2726 8.7812 11.5382C9.0612 11.6838 9.3906 11.6091 9.6138 11.3859L10.4876 10.5121C10.9791 10.0206 11.7493 9.9443 12.3277 10.3299L14.8444 12.0076C15.6145 12.521 15.7227 13.6102 15.0683 14.2647Z" fill="#72996B"/>
</svg>
