<svg width="12" height="8" viewBox="0 0 12 8" fill="none" xmlns="http://www.w3.org/2000/svg">
<path d="M8.24674 1.17269C8.01395 0.937298 7.63465 0.934329 7.39822 1.16607L2.96322 5.54935L1.03528 3.55345C0.805336 3.31379 0.424656 3.30593 0.185022 3.53587C-0.0546382 3.76582 -0.0625045 4.1465 0.16744 4.38613C0.168482 4.3872 0.169498 4.38827 0.17054 4.38933L2.52125 6.82543C2.63375 6.94019 2.7875 7.00518 2.94821 7.00583H2.95483C3.11249 7.00533 3.26367 6.94292 3.37578 6.83204L8.24132 2.0212C8.4764 1.78808 8.47879 1.4088 8.24674 1.17269Z" fill="#847F60"/>
<path d="M6.1293 6.82542C6.24151 6.9399 6.39477 7.00483 6.55507 7.00582H6.56168C6.71935 7.00533 6.87053 6.94292 6.98263 6.83204L11.8482 2.02119C12.0687 1.77286 12.0462 1.39278 11.7979 1.17224C11.5728 0.9723 11.2345 0.969669 11.0063 1.16606L6.57309 5.54934L6.41493 5.38517C6.18501 5.1455 5.80433 5.13761 5.56467 5.36756C5.32501 5.59748 5.31712 5.97816 5.54707 6.21782C5.54811 6.21891 5.54915 6.21998 5.55019 6.22105L6.1293 6.82542Z" fill="#847F60"/>
</svg>
