<svg width="24" height="24" viewBox="0 0 24 24" fill="none" xmlns="http://www.w3.org/2000/svg">
<path d="M3.66332 13.32C3.66332 8.7241 7.40408 4.98334 12 4.98334C16.5954 4.98334 20.3367 8.7336 20.3367 13.33C20.3367 17.9259 16.5959 21.6667 12 21.6667C7.40458 21.6667 3.66332 17.9164 3.66332 13.32ZM12 14.0833C12.5941 14.0833 13.0833 13.5941 13.0833 13V8.00001C13.0833 7.40591 12.5941 6.91668 12 6.91668C11.4059 6.91668 10.9167 7.40591 10.9167 8.00001V13C10.9167 13.5941 11.4059 14.0833 12 14.0833Z" fill="#4DBA0B" stroke="#4DBA0B" stroke-width="0.666667"/>
<path d="M14.8896 3.11667H9.10965C8.89374 3.11667 8.72298 2.94591 8.72298 2.73C8.72298 2.50808 8.8997 2.33333 9.10965 2.33333H14.8896C15.1056 2.33333 15.2763 2.50409 15.2763 2.72C15.2763 2.94192 15.0996 3.11667 14.8896 3.11667Z" fill="#4DBA0B" stroke="#4DBA0B" stroke-width="0.666667"/>
</svg>
