<svg width="21" height="18" viewBox="0 0 21 18" fill="none" xmlns="http://www.w3.org/2000/svg">
<path d="M2.4074 12.3487C1.19753 10.2818 1.19753 7.71824 2.4074 5.65133C5.35873 0.609349 11.8095 -0.333552 16.0697 2.82263L16.3273 3.08022L12.9844 6.47616L7.96261 11.5777L4.62501 14.9682L4.46835 14.8116C3.67814 14.1436 2.97748 13.3226 2.4074 12.3487Z" fill="#6E51D0" fill-opacity="0.24"/>
<path d="M19.2399 5.27246C19.0306 4.91498 18.5712 4.79482 18.2137 5.00407C17.8563 5.21332 17.7361 5.67274 17.9453 6.03021L19.2399 5.27246ZM18.5926 12.3487L17.9453 11.9698L18.5926 12.3487ZM7.66464 15.7776C7.27297 15.6427 6.84619 15.851 6.71137 16.2426C6.57656 16.6343 6.78478 17.0611 7.17645 17.1959L7.66464 15.7776ZM2.4074 12.3487L3.05466 11.9698L2.4074 12.3487ZM2.4074 5.65133L3.05466 6.03021L2.4074 5.65133ZM4.46835 14.8116L4.99868 14.2813L4.9765 14.2591L4.95255 14.2388L4.46835 14.8116ZM16.0697 2.82263L16.6 2.2923L16.5608 2.25304L16.5162 2.22L16.0697 2.82263ZM12.9338 6.42557L13.4641 5.89524C13.46 5.89105 13.4557 5.88691 13.4514 5.88282L12.9338 6.42557ZM7.8133 11.4284L7.2432 11.9157C7.25589 11.9305 7.26916 11.9449 7.28297 11.9587L7.8133 11.4284ZM14.8067 9.0607C14.8067 8.64649 14.4709 8.3107 14.0567 8.3107C13.6425 8.3107 13.3067 8.64649 13.3067 9.0607H14.8067ZM10.4994 11.9233C10.0852 11.9233 9.74944 12.2591 9.74944 12.6733C9.74944 13.0875 10.0852 13.4233 10.4994 13.4233V11.9233ZM2.65301 15.9024C2.36243 16.1976 2.36617 16.6725 2.66136 16.9631C2.95655 17.2536 3.43141 17.2499 3.72199 16.9547L2.65301 15.9024ZM18.9095 1.52614C19.2001 1.23095 19.1963 0.756089 18.9011 0.465511C18.6059 0.174933 18.1311 0.178672 17.8405 0.473862L18.9095 1.52614ZM16.3273 3.08022L16.8618 3.60635L16.3273 3.08022ZM17.9453 6.03021C19.0182 7.8631 19.0182 10.1369 17.9453 11.9698L19.2399 12.7275C20.5867 10.4266 20.5867 7.57337 19.2399 5.27246L17.9453 6.03021ZM17.9453 11.9698C15.7217 15.7686 11.3404 17.0427 7.66464 15.7776L7.17645 17.1959C11.4744 18.6752 16.6274 17.1907 19.2399 12.7275L17.9453 11.9698ZM3.05466 11.9698C1.98178 10.1369 1.98178 7.8631 3.05466 6.03021L1.76013 5.27246C0.413289 7.57337 0.413288 10.4266 1.76013 12.7275L3.05466 11.9698ZM4.95255 14.2388C4.22734 13.6258 3.58181 12.8704 3.05466 11.9698L1.76013 12.7275C2.37315 13.7748 3.12893 14.6614 3.98415 15.3843L4.95255 14.2388ZM3.05466 6.03021C5.76824 1.3944 11.7017 0.519963 15.6232 3.42527L16.5162 2.22C11.9173 -1.18707 4.94922 -0.175702 1.76013 5.27246L3.05466 6.03021ZM7.69331 9.0607C7.69331 7.46701 8.96065 6.19699 10.4994 6.19699V4.69699C8.10973 4.69699 6.19331 6.66125 6.19331 9.0607H7.69331ZM10.4994 6.19699C11.2392 6.19699 11.9126 6.48802 12.4162 6.96831L13.4514 5.88282C12.6822 5.14925 11.6429 4.69699 10.4994 4.69699V6.19699ZM8.3834 10.941C7.95402 10.4387 7.69331 9.78247 7.69331 9.0607H6.19331C6.19331 10.1505 6.58864 11.15 7.2432 11.9157L8.3834 10.941ZM13.3067 9.0607C13.3067 10.6528 12.0387 11.9233 10.4994 11.9233V13.4233C12.8887 13.4233 14.8067 11.4595 14.8067 9.0607H13.3067ZM4.09052 14.4421L2.65301 15.9024L3.72199 16.9547L5.1595 15.4944L4.09052 14.4421ZM3.93802 15.3419L4.09468 15.4986L5.15534 14.4379L4.99868 14.2813L3.93802 15.3419ZM7.42812 11.0515L4.09052 14.4421L5.1595 15.4944L8.49709 12.1038L7.42812 11.0515ZM7.28297 11.9587L7.43228 12.108L8.49294 11.0473L8.34363 10.898L7.28297 11.9587ZM12.4499 5.95002L7.42812 11.0515L8.49709 12.1038L13.5189 7.0023L12.4499 5.95002ZM12.4035 6.9559L12.4541 7.00649L13.5147 5.94583L13.4641 5.89524L12.4035 6.9559ZM17.8405 0.473862L15.7928 2.55408L16.8618 3.60635L18.9095 1.52614L17.8405 0.473862ZM15.7928 2.55408L12.4499 5.95002L13.5189 7.0023L16.8618 3.60635L15.7928 2.55408ZM15.5394 3.35296L15.797 3.61055L16.8576 2.54989L16.6 2.2923L15.5394 3.35296Z" fill="#6E51D0"/>
</svg>
