<svg width="20" height="21" viewBox="0 0 20 21" fill="none" xmlns="http://www.w3.org/2000/svg">
<path d="M13.13 10.9H13.08C12.99 10.9 12.9 10.87 12.83 10.81C11.22 9.38 8.79994 9.38 7.18994 10.81C7.10994 10.88 7.00001 10.92 6.89001 10.9C6.78001 10.88 6.68001 10.82 6.63 10.73L13.13 10.9ZM13.13 10.9C13.23 10.89 13.33 10.82 13.39 10.73L13.13 10.9ZM4.18005 7.41998L6.33997 10.9C6.44997 11.094 6.64996 11.196 6.82996 11.228C7.05996 11.269 7.27003 11.185 7.41003 11.061V11.059C8.90003 9.74102 11.12 9.74102 12.61 11.059V11.063C12.75 11.179 12.92 11.233 13.08 11.233H13.09H13.1H13.11H13.12H13.13H13.15L13.16 11.232C13.38 11.21 13.57 11.068 13.67 10.915V10.906L15.85 7.40997C16.05 7.11097 15.97 6.73398 15.73 6.50598L15.72 6.50098C12.46 3.59898 7.53003 3.59798 4.28003 6.50098L4.27002 6.50598C4.03002 6.73198 3.95005 7.11698 4.18005 7.41998ZM6 1.08301H14C15.42 1.08301 16.59 1.55702 17.39 2.36102C18.19 3.16502 18.67 4.326 18.67 5.75V15.75C18.67 17.174 18.19 18.335 17.39 19.139C16.59 19.943 15.42 20.417 14 20.417H6C4.58 20.417 3.40999 19.943 2.60999 19.139C1.80999 18.335 1.32996 17.174 1.32996 15.75V5.75C1.32996 4.326 1.80999 3.16502 2.60999 2.36102C3.40999 1.55702 4.58 1.08301 6 1.08301Z" fill="#FF9330"/>
<path d="M13.13 10.9H13.08C12.99 10.9 12.9 10.87 12.83 10.81C11.22 9.38 8.79994 9.38 7.18994 10.81C7.10994 10.88 7.00001 10.92 6.89001 10.9C6.78001 10.88 6.68 10.82 6.63 10.73L13.13 10.9ZM13.13 10.9C13.23 10.89 13.33 10.82 13.39 10.73L13.13 10.9ZM4.18005 7.41998L6.33997 10.9C6.44997 11.094 6.64996 11.196 6.82996 11.228C7.05996 11.269 7.27003 11.185 7.41003 11.061V11.059C8.90003 9.74102 11.12 9.74102 12.61 11.059V11.063C12.75 11.179 12.92 11.233 13.08 11.233H13.09H13.1H13.11H13.12H13.13H13.15L13.16 11.232C13.38 11.21 13.57 11.068 13.67 10.915V10.906L15.85 7.40997C16.05 7.11097 15.97 6.73398 15.73 6.50598L15.72 6.50098C12.46 3.59898 7.53003 3.59798 4.28003 6.50098L4.27002 6.50598C4.03002 6.73198 3.95005 7.11698 4.18005 7.41998ZM6 1.08301H14C15.42 1.08301 16.59 1.55702 17.39 2.36102C18.19 3.16502 18.67 4.326 18.67 5.75V15.75C18.67 17.174 18.19 18.335 17.39 19.139C16.59 19.943 15.42 20.417 14 20.417H6C4.58 20.417 3.40999 19.943 2.60999 19.139C1.80999 18.335 1.32996 17.174 1.32996 15.75V5.75C1.32996 4.326 1.80999 3.16502 2.60999 2.36102C3.40999 1.55702 4.58 1.08301 6 1.08301Z" stroke="#FF9330" stroke-width="0.666667"/>
</svg>
